<?xml version="1.0" encoding="utf-8"?>
<!-- Generator: Adobe Illustrator 24.1.2, SVG Export Plug-In . SVG Version: 6.00 Build 0)  -->
<svg version="1.1" id="Layer_1" xmlns="http://www.w3.org/2000/svg" xmlns:xlink="http://www.w3.org/1999/xlink" x="0px" y="0px"
	 viewBox="0 0 554.42 189.3" style="enable-background:new 0 0 554.42 189.3;" xml:space="preserve">
<style type="text/css">
	.st0{fill:#1E90FF;}
	.st1{fill:#FF0000;}
	.st2{fill:none;stroke:#FFFFFF;stroke-miterlimit:10;}
</style>
<g>
	<path class="st0" d="M298.6,173.87c-3.33-0.99-4.93-2.84-4.93-5.68c0-0.37,0.12-0.99,0.25-1.73c0.12-0.74,0.37-1.73,0.74-2.96
		c0.99-3.08,2.84-4.57,5.68-4.57c0.86,0,1.85,0.25,2.96,0.62c1.85,0.74,3.83,1.36,5.92,1.97c2.1,0.62,4.32,0.86,6.54,0.86
		c2.84,0,5.18-0.62,6.91-1.85c1.73-1.23,2.59-3.21,2.59-5.92c0-2.34-0.49-4.07-1.48-5.18c-0.99-1.11-2.34-2.1-4.19-2.96l-8.02-4.32
		c-4.56-2.34-8.14-5.31-10.86-8.88c-2.71-3.58-4.07-8.14-4.07-13.69c0-4.44,0.74-8.27,2.1-11.35c1.36-3.08,3.21-5.68,5.55-7.65
		c2.34-1.97,5.06-3.45,8.27-4.44c3.21-0.99,6.54-1.48,10.12-1.48c2.84,0,5.68,0.25,8.39,0.74c2.71,0.49,5.3,1.11,7.65,1.85
		c3.21,1.11,4.81,2.84,4.81,5.18c0,0.62,0,1.23-0.12,1.97s-0.37,1.73-0.86,3.08c-1.11,3.08-2.96,4.57-5.55,4.57
		c-1.11,0-2.1-0.12-3.08-0.49c-1.6-0.62-3.33-1.11-5.18-1.48s-3.58-0.62-5.18-0.62c-2.59,0-4.57,0.49-5.92,1.6
		c-1.36,1.11-2.1,2.96-2.1,5.68c0,2.1,0.62,3.83,1.73,5.31c1.11,1.48,2.84,2.71,5.06,3.83l7.77,4.2c1.97,1.11,3.83,2.34,5.55,3.7
		c1.73,1.36,3.33,2.84,4.69,4.57c1.36,1.73,2.47,3.58,3.33,5.68c0.86,2.1,1.23,4.44,1.23,7.03c0,4.44-0.62,8.27-1.97,11.6
		c-1.36,3.33-3.33,6.05-5.8,8.14c-2.47,2.1-5.43,3.7-9.01,4.69c-3.58,0.99-7.53,1.48-11.84,1.48c-3.33,0-6.54-0.37-9.62-1.11
		c-3.08-0.74-5.8-1.6-8.14-2.47L298.6,173.87z"/>
	<path class="st0" d="M368.44,168.07c0-0.62,0-1.6,0.12-2.96l1.23-17.4c0.12-0.62,0.12-1.11,0.12-1.48v-0.74
		c0-0.62-0.12-1.23-0.49-1.97l-16.66-39.73c-0.25-0.62-0.49-1.23-0.62-1.85c-0.12-0.62-0.25-1.11-0.25-1.6
		c0-1.48,0.49-2.71,1.48-3.58c0.99-0.86,2.47-1.36,4.44-1.36h5.92c2.1,0,3.58,0.49,4.44,1.6c0.86,1.11,1.6,2.59,2.22,4.44
		l9.25,23.81c0.37,0.86,0.62,1.36,0.74,1.36c0.25,0,0.62-0.49,0.99-1.36l12.71-23.69c0.86-1.85,1.85-3.33,2.84-4.44
		c0.99-1.11,2.59-1.73,4.69-1.73h5.8c1.6,0,2.84,0.37,3.7,1.23c0.86,0.86,1.36,1.97,1.36,3.33c0,0.62,0,1.23-0.12,1.85
		c-0.12,0.62-0.37,1.23-0.74,1.85l-22.95,40.72c-0.12,0.37-0.25,0.74-0.37,1.11c-0.12,0.37-0.25,0.86-0.37,1.48l-1.6,21.47
		c-0.25,4.81-3.08,7.28-8.39,7.28h-2.22c-4.81,0-7.28-2.1-7.28-6.42V168.07z"/>
	<path class="st0" d="M417.92,170.04c0-0.12,0-0.74,0-1.73c0-0.99,0.12-2.1,0.25-3.33l4.32-62.31c0.12-2.1,0.86-3.83,2.1-5.06
		c1.23-1.23,2.96-1.85,5.06-1.85h1.85c2.1,0,4.07,0.37,5.8,1.23c1.73,0.86,3.08,2.22,3.95,4.07l20.23,41.33
		c0.25,0.49,0.49,0.74,0.62,0.74c0.12,0,0.25-0.25,0.25-0.86l2.71-39.97c0.37-4.44,3.08-6.66,8.14-6.66h1.85
		c4.57,0,6.91,1.97,6.91,5.92c0,0.37,0,0.86,0,1.6c0,0.74,0,1.6-0.12,2.47l-4.44,63.54c-0.37,4.44-2.71,6.66-7.03,6.66h-1.85
		c-2.1,0-3.95-0.49-5.68-1.48c-1.73-0.99-3.08-2.34-3.95-4.07l-20.48-42.07c-0.25-0.37-0.37-0.62-0.49-0.62
		c-0.25,0-0.37,0.37-0.37,0.99l-2.71,40.47c-0.37,4.44-3.08,6.66-8.14,6.66h-1.85c-4.57,0-6.91-1.97-6.91-5.92V170.04z"/>
	<path class="st0" d="M492.57,141.42c0-9.25,0.99-16.9,3.08-22.95c2.1-6.05,4.81-10.86,8.14-14.44c3.33-3.58,7.16-6.05,11.48-7.4
		c4.32-1.36,8.64-2.1,13.08-2.1c5.06,0,9.38,0.74,12.95,2.34c1.36,0.62,2.47,1.36,3.21,2.22c0.74,0.86,1.11,1.85,1.11,2.96
		c0,0.49-0.12,1.11-0.25,1.85c-0.12,0.74-0.37,1.36-0.62,1.85l-0.86,1.85c-1.23,2.84-3.08,4.2-5.55,4.2c-0.86,0-1.73-0.12-2.71-0.37
		c-1.36-0.49-2.71-0.86-4.07-1.23c-1.36-0.37-2.71-0.49-4.2-0.49c-2.71,0-5.06,0.62-7.16,1.73c-2.1,1.11-3.82,2.96-5.18,5.55
		c-1.36,2.59-2.34,5.92-3.08,9.99s-1.11,9.01-1.11,14.81c0,3.82,0.25,7.03,0.74,9.62c0.49,2.59,1.36,4.69,2.47,6.29
		c1.11,1.6,2.47,2.71,4.07,3.33c1.6,0.62,3.58,0.86,5.8,0.86c3.58,0,6.78-0.74,9.62-2.1c1.23-0.62,2.47-0.86,3.58-0.86
		c1.85,0,3.45,1.23,4.81,3.58l0.62,1.23c0.62,1.6,0.99,2.84,0.99,3.7c0,1.23-0.37,2.34-1.11,3.33c-0.74,0.99-1.73,1.73-2.84,2.34
		c-2.34,1.23-4.81,2.22-7.4,2.84c-2.59,0.62-5.8,0.99-9.5,0.99c-4.32,0-8.39-0.49-12.09-1.6c-3.7-1.11-6.91-2.96-9.62-5.68
		c-2.71-2.71-4.81-6.29-6.29-10.86c-1.48-4.57-2.22-10.36-2.22-17.4H492.57z"/>
</g>
<path class="st0" d="M260.59,81.77c0-0.99,0.12-2.34,0.25-3.95l3.33-47.87c0.12-0.74,0.25-1.48,0.25-2.22s0-1.23,0-1.36
	c0-0.74-0.37-1.11-1.23-1.11h-11.11c-3.83,0-5.8-1.85-5.8-5.68c0-2.84,0.37-5.06,1.23-6.79c0.86-1.73,2.71-2.59,5.55-2.59h43.31
	c3.95,0,5.92,1.97,5.92,5.8c0,2.59-0.37,4.81-1.23,6.54c-0.86,1.73-2.71,2.59-5.55,2.59h-11.6c-0.86,0-1.36,0.49-1.48,1.36
	l-3.83,56.26c-0.37,4.81-3.21,7.28-8.51,7.28h-2.22c-2.34,0-4.2-0.49-5.43-1.48c-1.23-0.99-1.85-2.71-1.85-5.06
	C260.59,83.38,260.59,82.76,260.59,81.77z"/>
<path class="st0" d="M307.6,84.12c0-0.37,0-0.99,0-1.73s0.12-1.6,0.25-2.47l4.32-63.05c0.12-1.85,0.86-3.45,2.1-4.69
	c1.23-1.23,2.84-1.85,4.69-1.85h21.22c8.27,0,14.31,1.97,18.14,5.92c3.83,3.95,5.68,9.62,5.68,17.15c0,11.97-3.95,20.23-11.84,24.8
	c-0.49,0.37-0.74,0.74-0.74,1.11c0,0.12,0,0.25,0.12,0.37c0.12,0.12,0.25,0.25,0.37,0.37l11.23,22.95c0.62,1.11,0.86,1.97,0.86,2.59
	c0,1.36-0.49,2.47-1.36,3.33c-0.86,0.86-2.1,1.23-3.7,1.23h-6.79c-2.1,0-3.7-0.49-4.81-1.48s-2.1-2.47-2.96-4.32l-9.5-21.47
	c-0.37-0.86-0.99-1.23-1.85-1.23c-0.12,0-0.37,0-0.74,0s-0.74,0-1.11,0h-2.84c-0.86,0-1.36,0.37-1.48,1.23l-1.23,19.86
	c-0.12,2.59-0.99,4.44-2.47,5.55c-1.48,1.11-3.45,1.73-6.05,1.73H315c-4.81,0-7.28-2.1-7.28-6.42L307.6,84.12z M333.75,47.47
	c1.85,0,3.58-0.12,5.06-0.49s2.71-0.99,3.7-1.85c0.99-0.86,1.73-2.1,2.22-3.7c0.49-1.6,0.74-3.7,0.74-6.29
	c0-3.82-0.86-6.42-2.71-7.65c-1.85-1.23-4.44-1.85-7.77-1.85h-4.32c-0.86,0-1.36,0.49-1.36,1.36l-1.11,15.92
	c-0.12,0.86-0.12,1.6-0.12,2.22c0,0.62,0,0.99,0,1.11c0,0.74,0.37,1.11,1.23,1.11h4.2L333.75,47.47z"/>
<path class="st0" d="M369.91,85.72c0-0.62,0.12-1.23,0.25-1.85l0.49-1.73l23.81-66.01c0.62-1.85,1.73-3.45,3.33-4.69
	c1.6-1.23,3.58-1.85,5.92-1.85h7.4c2.34,0,4.2,0.62,5.68,1.85c1.48,1.23,2.47,2.71,2.84,4.57l14.43,65.89
	c0.25,0.99,0.37,1.85,0.37,2.71c0,1.48-0.49,2.71-1.48,3.83c-0.99,1.11-2.34,1.6-4.2,1.6h-6.17c-2.1,0-3.58-0.62-4.57-1.73
	c-0.99-1.11-1.73-2.71-2.1-4.69l-1.85-9.13c-0.12-0.86-0.62-1.36-1.48-1.36h-20.23c-0.99,0-1.6,0.37-1.85,1.23l-3.21,9.5
	c-0.62,1.85-1.48,3.33-2.59,4.44c-1.11,1.11-2.59,1.6-4.44,1.6h-5.68c-1.6,0-2.71-0.37-3.45-1.11s-1.11-1.85-1.11-3.21L369.91,85.72
	z M397.06,58.82h12.95c0.62,0,0.99-0.37,0.99-0.99v-0.25c0-0.12,0-0.49-0.12-0.99l-4.81-25.42c-0.12-0.74-0.25-1.11-0.49-1.11
	c-0.12,0-0.37,0.37-0.62,1.11l-8.51,25.29l-0.37,1.23v0.37C396.07,58.58,396.44,58.82,397.06,58.82z"/>
<path class="st0" d="M446.04,82.39c0-0.62,0.12-1.6,0.25-2.96L450.61,17c0.25-4.81,3.08-7.28,8.39-7.28h2.1c4.93,0,7.4,2.1,7.4,6.42
	c0,0.37,0,0.86,0,1.6s0,1.6-0.12,2.59l-4.2,62.43c-0.37,4.81-3.21,7.28-8.51,7.28h-2.1c-4.94,0-7.4-2.1-7.4-6.42L446.04,82.39z"/>
<path class="st0" d="M481.33,82.76c0-0.74,0.12-1.85,0.25-3.21l4.44-62.43c0.25-4.81,3.08-7.28,8.39-7.28h2.1
	c4.93,0,7.4,2.1,7.4,6.42v1.11c0,0.49-0.12,1.48-0.25,2.84l-3.45,49.6c-0.12,1.36-0.25,2.22-0.25,2.59v0.86
	c0,0.62,0.49,0.99,1.36,0.99h20.73c3.95,0,5.92,1.97,5.92,6.05c0,2.84-0.49,5.06-1.36,6.79c-0.86,1.73-2.71,2.59-5.55,2.59h-33.68
	c-1.85,0-3.33-0.49-4.32-1.48c-0.99-0.99-1.48-2.34-1.48-4.07L481.33,82.76z"/>
<g>
	<path class="st0" d="M4.04,171.7c-4.05,5.23-1.95,9.46,4.66,9.39l232.07-2.17c6.61-0.06,9.58-4.94,6.6-10.84L176.64,28.2
		c-2.98-5.9-8.54-6.31-12.34-0.9l-50.34,71.51c-3.81,5.41-12.02,8.03-18.26,5.84L75.8,97.63c-6.24-2.2-14.65,0.29-18.7,5.51
		L4.04,171.7z"/>
</g>
<g>
	<path class="st1" d="M59.35,69.02c-5.98,0-11.6-2.33-15.83-6.56c-3.26-3.26-5.38-7.34-6.19-11.77l6.03,0L32.49,37.22L21.61,50.69
		l6.66,0c0.88,6.83,3.97,13.15,8.92,18.1c5.92,5.92,13.79,9.18,22.16,9.18c8.37,0,19-4.7,24.12-12.5l-8.29-3
		C70.94,66.69,65.32,69.02,59.35,69.02z"/>
	<path class="st1" d="M43.52,30.81c4.23-4.23,9.85-6.56,15.83-6.56s11.6,2.33,15.83,6.56c3.26,3.26,5.38,7.34,6.19,11.77l-6.03,0
		L86.2,56.05l10.88-13.47l-6.66,0c-0.88-6.83-3.97-13.15-8.92-18.1c-5.92-5.92-13.79-9.18-22.16-9.18c-8.37,0-16.24,3.26-22.16,9.18
		L43.52,30.81z"/>
</g>
</svg>
