<?xml version="1.0" encoding="utf-8"?>
<!-- Generator: Adobe Illustrator 24.1.2, SVG Export Plug-In . SVG Version: 6.00 Build 0)  -->
<svg version="1.1" id="Layer_1" xmlns="http://www.w3.org/2000/svg" xmlns:xlink="http://www.w3.org/1999/xlink" x="0px" y="0px"
	 viewBox="0 0 420.18 54.35" style="enable-background:new 0 0 420.18 54.35;" xml:space="preserve">
<style type="text/css">
	.st0{fill:#1E90FF;}
	.st1{fill:#FF0000;}
	.st2{fill:none;stroke:#FFFFFF;stroke-miterlimit:10;}
</style>
<g>
	<g>
		<path d="M0.71,51.11c-1.4,1.8-0.67,3.28,1.61,3.28l80.03,0.02c2.28,0,3.31-1.67,2.3-3.71L60.21,1.63
			c-1.02-2.04-2.92-2.19-4.23-0.32L38.62,25.97c-1.31,1.86-4.15,2.77-6.3,2.01l-6.87-2.42c-2.15-0.76-5.05,0.1-6.45,1.9L0.71,51.11z
			"/>
	</g>
	<g>
		<g>
			<path d="M274.18,49.37c-1.97-0.58-2.92-1.68-2.92-3.35c0-0.22,0.07-0.58,0.15-1.02c0.07-0.44,0.22-1.02,0.44-1.75
				c0.58-1.82,1.68-2.7,3.35-2.7c0.51,0,1.09,0.15,1.75,0.36c1.09,0.44,2.26,0.8,3.5,1.17s2.55,0.51,3.86,0.51
				c1.68,0,3.06-0.37,4.08-1.09c1.02-0.73,1.53-1.9,1.53-3.5c0-1.38-0.29-2.41-0.88-3.06c-0.58-0.66-1.39-1.24-2.48-1.75l-4.74-2.55
				c-2.7-1.39-4.81-3.14-6.42-5.25c-1.6-2.11-2.41-4.81-2.41-8.09c0-2.63,0.44-4.89,1.24-6.71c0.8-1.82,1.9-3.35,3.28-4.52
				c1.39-1.17,2.99-2.04,4.89-2.62s3.86-0.88,5.98-0.88c1.68,0,3.35,0.15,4.96,0.44c1.6,0.29,3.14,0.66,4.52,1.09
				c1.9,0.66,2.84,1.68,2.84,3.06c0,0.37,0,0.73-0.07,1.17c-0.07,0.44-0.22,1.02-0.51,1.82c-0.66,1.82-1.75,2.7-3.28,2.7
				c-0.66,0-1.24-0.07-1.82-0.29c-0.95-0.36-1.97-0.66-3.06-0.88s-2.11-0.36-3.06-0.36c-1.53,0-2.7,0.29-3.5,0.95
				s-1.24,1.75-1.24,3.35c0,1.24,0.36,2.26,1.02,3.14s1.68,1.6,2.99,2.26l4.59,2.48c1.17,0.66,2.26,1.39,3.28,2.19
				c1.02,0.8,1.97,1.68,2.77,2.7c0.8,1.02,1.46,2.11,1.97,3.35c0.51,1.24,0.73,2.63,0.73,4.16c0,2.62-0.36,4.89-1.17,6.85
				c-0.8,1.97-1.97,3.57-3.43,4.81c-1.46,1.24-3.21,2.19-5.32,2.77s-4.45,0.88-7,0.88c-1.97,0-3.86-0.22-5.69-0.66
				c-1.82-0.44-3.43-0.95-4.81-1.46L274.18,49.37z"/>
			<path d="M315.46,45.94c0-0.37,0-0.95,0.07-1.75l0.73-10.28c0.07-0.37,0.07-0.66,0.07-0.88V32.6c0-0.37-0.07-0.73-0.29-1.17
				L306.2,7.95c-0.15-0.37-0.29-0.73-0.36-1.09c-0.07-0.37-0.15-0.66-0.15-0.95c0-0.88,0.29-1.6,0.88-2.12
				c0.58-0.51,1.46-0.8,2.63-0.8h3.5c1.24,0,2.11,0.29,2.63,0.95c0.51,0.66,0.95,1.53,1.31,2.62l5.47,14.07
				c0.22,0.51,0.36,0.8,0.44,0.8c0.15,0,0.36-0.29,0.58-0.8l7.51-14c0.51-1.09,1.09-1.97,1.68-2.63s1.53-1.02,2.77-1.02h3.43
				c0.95,0,1.68,0.22,2.19,0.73c0.51,0.51,0.8,1.17,0.8,1.97c0,0.36,0,0.73-0.07,1.09c-0.07,0.36-0.22,0.73-0.44,1.09l-13.56,24.06
				c-0.07,0.22-0.15,0.44-0.22,0.66c-0.07,0.22-0.15,0.51-0.22,0.88l-0.95,12.69c-0.15,2.84-1.82,4.3-4.96,4.3h-1.31
				c-2.84,0-4.3-1.24-4.3-3.79V45.94z"/>
			<path d="M344.7,47.11c0-0.07,0-0.44,0-1.02s0.07-1.24,0.15-1.97l2.55-36.83c0.07-1.24,0.51-2.26,1.24-2.99
				c0.73-0.73,1.75-1.09,2.99-1.09h1.09c1.24,0,2.41,0.22,3.43,0.73c1.02,0.51,1.82,1.31,2.33,2.41l11.96,24.43
				c0.15,0.29,0.29,0.44,0.36,0.44c0.07,0,0.15-0.15,0.15-0.51l1.6-23.63c0.22-2.63,1.82-3.94,4.81-3.94h1.09
				c2.7,0,4.08,1.17,4.08,3.5c0,0.22,0,0.51,0,0.95c0,0.44,0,0.95-0.07,1.46l-2.62,37.55c-0.22,2.62-1.6,3.94-4.16,3.94h-1.09
				c-1.24,0-2.33-0.29-3.35-0.88s-1.82-1.39-2.33-2.41l-12.1-24.87c-0.15-0.22-0.22-0.37-0.29-0.37c-0.15,0-0.22,0.22-0.22,0.58
				l-1.6,23.92c-0.22,2.62-1.82,3.94-4.81,3.94h-1.09c-2.7,0-4.08-1.17-4.08-3.5V47.11z"/>
			<path d="M388.83,30.19c0-5.47,0.58-9.99,1.82-13.56c1.24-3.57,2.84-6.42,4.81-8.53c1.97-2.12,4.23-3.57,6.78-4.37
				c2.55-0.8,5.1-1.24,7.73-1.24c2.99,0,5.54,0.44,7.66,1.39c0.8,0.36,1.46,0.8,1.9,1.31s0.66,1.09,0.66,1.75
				c0,0.29-0.07,0.66-0.15,1.09c-0.07,0.44-0.22,0.8-0.36,1.09l-0.51,1.09c-0.73,1.68-1.82,2.48-3.28,2.48
				c-0.51,0-1.02-0.07-1.6-0.22c-0.8-0.29-1.6-0.51-2.41-0.73c-0.8-0.22-1.6-0.29-2.48-0.29c-1.6,0-2.99,0.36-4.23,1.02
				c-1.24,0.66-2.26,1.75-3.06,3.28c-0.8,1.53-1.39,3.5-1.82,5.91s-0.66,5.32-0.66,8.75c0,2.26,0.15,4.16,0.44,5.69
				c0.29,1.53,0.8,2.77,1.46,3.72c0.66,0.95,1.46,1.6,2.41,1.97c0.95,0.37,2.11,0.51,3.43,0.51c2.11,0,4.01-0.44,5.69-1.24
				c0.73-0.37,1.46-0.51,2.11-0.51c1.09,0,2.04,0.73,2.84,2.11l0.36,0.73c0.36,0.95,0.58,1.68,0.58,2.19c0,0.73-0.22,1.39-0.66,1.97
				c-0.44,0.58-1.02,1.02-1.68,1.39c-1.39,0.73-2.84,1.31-4.38,1.68c-1.53,0.36-3.43,0.58-5.62,0.58c-2.55,0-4.96-0.29-7.15-0.95
				s-4.08-1.75-5.69-3.35c-1.6-1.6-2.84-3.72-3.72-6.42s-1.31-6.12-1.31-10.28H388.83z"/>
		</g>
		<g>
			<g>
				<path d="M108.12,46.11c0-0.58,0.07-1.38,0.15-2.33l1.97-28.29c0.07-0.44,0.15-0.88,0.15-1.31s0-0.73,0-0.8
					c0-0.44-0.22-0.66-0.73-0.66h-6.56c-2.26,0-3.43-1.09-3.43-3.35c0-1.68,0.22-2.99,0.73-4.01c0.51-1.02,1.6-1.53,3.28-1.53h25.6
					c2.33,0,3.5,1.17,3.5,3.43c0,1.53-0.22,2.84-0.73,3.87c-0.51,1.02-1.6,1.53-3.28,1.53h-6.85c-0.51,0-0.8,0.29-0.88,0.8
					l-2.26,33.25c-0.22,2.84-1.9,4.3-5.03,4.3h-1.31c-1.39,0-2.48-0.29-3.21-0.88c-0.73-0.58-1.09-1.6-1.09-2.99
					C108.12,47.06,108.12,46.7,108.12,46.11z"/>
				<path d="M135.91,47.5c0-0.22,0-0.58,0-1.02s0.07-0.95,0.15-1.46l2.55-37.26c0.07-1.09,0.51-2.04,1.24-2.77
					c0.73-0.73,1.68-1.09,2.77-1.09h12.54c4.89,0,8.46,1.17,10.72,3.5c2.26,2.33,3.35,5.69,3.35,10.14c0,7.07-2.33,11.96-7,14.66
					c-0.29,0.22-0.44,0.44-0.44,0.66c0,0.07,0,0.15,0.07,0.22s0.15,0.15,0.22,0.22l6.64,13.56c0.36,0.66,0.51,1.17,0.51,1.53
					c0,0.8-0.29,1.46-0.8,1.97c-0.51,0.51-1.24,0.73-2.19,0.73h-4.01c-1.24,0-2.19-0.29-2.84-0.88s-1.24-1.46-1.75-2.55l-5.61-12.69
					c-0.22-0.51-0.58-0.73-1.09-0.73c-0.07,0-0.22,0-0.44,0s-0.44,0-0.66,0h-1.68c-0.51,0-0.8,0.22-0.88,0.73l-0.73,11.74
					c-0.07,1.53-0.58,2.62-1.46,3.28S143.06,51,141.52,51h-1.24c-2.84,0-4.3-1.24-4.3-3.79L135.91,47.5z M151.37,25.84
					c1.09,0,2.11-0.07,2.99-0.29c0.88-0.22,1.6-0.58,2.19-1.09c0.58-0.51,1.02-1.24,1.31-2.19c0.29-0.95,0.44-2.19,0.44-3.72
					c0-2.26-0.51-3.79-1.6-4.52c-1.09-0.73-2.63-1.09-4.59-1.09h-2.55c-0.51,0-0.8,0.29-0.8,0.8l-0.66,9.41
					c-0.07,0.51-0.07,0.95-0.07,1.31c0,0.36,0,0.58,0,0.66c0,0.44,0.22,0.66,0.73,0.66h2.48L151.37,25.84z"/>
				<path d="M172.74,48.45c0-0.37,0.07-0.73,0.15-1.09l0.29-1.02l14.07-39.01c0.36-1.09,1.02-2.04,1.97-2.77
					c0.95-0.73,2.11-1.09,3.5-1.09h4.38c1.39,0,2.48,0.37,3.35,1.09c0.88,0.73,1.46,1.6,1.68,2.7l8.53,38.94
					c0.15,0.58,0.22,1.09,0.22,1.6c0,0.88-0.29,1.6-0.88,2.26S208.62,51,207.52,51h-3.65c-1.24,0-2.11-0.36-2.7-1.02
					c-0.58-0.66-1.02-1.6-1.24-2.77l-1.09-5.4c-0.07-0.51-0.36-0.8-0.88-0.8h-11.96c-0.58,0-0.95,0.22-1.09,0.73l-1.9,5.62
					c-0.36,1.09-0.88,1.97-1.53,2.62s-1.53,0.95-2.63,0.95h-3.35c-0.95,0-1.6-0.22-2.04-0.66s-0.66-1.09-0.66-1.9L172.74,48.45z
					 M188.78,32.55h7.66c0.36,0,0.58-0.22,0.58-0.58v-0.15c0-0.07,0-0.29-0.07-0.58l-2.84-15.02c-0.07-0.44-0.15-0.66-0.29-0.66
					c-0.07,0-0.22,0.22-0.36,0.66l-5.03,14.95l-0.22,0.73v0.22C188.2,32.4,188.42,32.55,188.78,32.55z"/>
				<path d="M217.73,46.48c0-0.37,0.07-0.95,0.15-1.75l2.55-36.9c0.15-2.84,1.82-4.3,4.96-4.3h1.24c2.92,0,4.38,1.24,4.38,3.79
					c0,0.22,0,0.51,0,0.95s0,0.95-0.07,1.53l-2.48,36.9c-0.22,2.84-1.9,4.3-5.03,4.3h-1.24c-2.92,0-4.38-1.24-4.38-3.79
					L217.73,46.48z"/>
				<path d="M238.59,46.7c0-0.44,0.07-1.09,0.15-1.9l2.62-36.9c0.15-2.84,1.82-4.3,4.96-4.3h1.24c2.92,0,4.38,1.24,4.38,3.79v0.66
					c0,0.29-0.07,0.88-0.15,1.68l-2.04,29.31c-0.07,0.8-0.15,1.31-0.15,1.53v0.51c0,0.36,0.29,0.58,0.8,0.58h12.25
					c2.33,0,3.5,1.17,3.5,3.57c0,1.68-0.29,2.99-0.8,4.01c-0.51,1.02-1.6,1.53-3.28,1.53h-19.91c-1.09,0-1.97-0.29-2.55-0.88
					c-0.58-0.58-0.88-1.39-0.88-2.41L238.59,46.7z"/>
			</g>
		</g>
	</g>
</g>
</svg>
