<?xml version="1.0" encoding="utf-8"?>
<!-- Generator: Adobe Illustrator 24.1.2, SVG Export Plug-In . SVG Version: 6.00 Build 0)  -->
<svg version="1.1" id="Calque_1" xmlns="http://www.w3.org/2000/svg" xmlns:xlink="http://www.w3.org/1999/xlink" x="0px" y="0px"
	 viewBox="0 0 198 72" style="enable-background:new 0 0 198 72;" xml:space="preserve">
<style type="text/css">
	.st0{fill:#58B947;}
</style>
<g>
	<g>
		<path d="M91.1,32.76h-6.53c-0.1-2.59-1.75-4-4.07-4c-2.32,0-3.74,1.23-3.74,3.41c0,2.46,1.8,3.23,5.82,4.59
			c7,2.32,9.51,5.09,9.51,9.87c0,6.14-4.73,9.64-10.98,9.64c-7.57,0-11.5-4.27-11.64-10.32H76c0.14,3.14,1.89,4.87,5.2,4.87
			c2.79,0,4.35-1.5,4.35-3.64c0-2.14-1.75-3.37-5.87-4.68c-6.01-1.91-9.46-4.46-9.46-9.78c0-5.5,3.93-9.46,10.46-9.46
			C86.84,23.26,90.86,26.44,91.1,32.76z"/>
		<path d="M116.27,44.04c0-6.17-2.72-10.07-7.03-11.45l4.35-4.43h-7.31l-4.34,4.4c-4.83,1.47-7.82,5.95-7.82,11.57
			c0,7.28,4.64,12.01,11.46,12.01c5.55,0,9.14-2.87,10.55-7.73h-5.73c-0.64,1.77-2.36,2.68-4.68,2.68c-3.23,0-5.32-2.14-5.5-5.18
			h16.05V44.04z M100.22,41.86c0.27-2.87,2.23-4.91,5.23-4.91c2.91,0,4.82,1.91,4.91,4.91H100.22z"/>
		<path d="M143.04,44.13c0,6.78-4.5,12.05-10.73,12.05c-3.32,0-5.73-1.36-6.91-3.05v12.32h-5.87V32.63h5.05l0.41,3.09
			c1.32-1.86,3.41-3.59,7.37-3.59C138.53,32.13,143.04,37.36,143.04,44.13z M125.25,44.04v0.27c0.05,4.09,3,6.32,5.87,6.32
			c3.23,0,5.82-2.55,5.82-6.5c0-3.96-2.5-6.5-5.82-6.5C128.21,37.63,125.25,39.9,125.25,44.04z"/>
		<path d="M163.42,35.72l0.41-3.09h5.05v23.44h-5.05l-0.41-3.48c-1.32,1.86-3.41,3.59-7.37,3.59c-6.18,0-10.69-5.28-10.69-12.05
			s4.5-12.01,10.69-12.01C160.01,32.13,162.1,33.86,163.42,35.72z M151.46,44.13c0,4,2.5,6.55,5.82,6.55c2.91,0,5.87-2.27,5.87-6.41
			v-0.23c0-4.14-2.96-6.41-5.87-6.41C153.96,37.63,151.46,40.18,151.46,44.13z"/>
		<path d="M189.66,35.72l0.41-3.09h5.05v32.83h-5.87V53.14c-1.18,1.68-3.59,3.05-6.91,3.05c-6.23,0-10.73-5.28-10.73-12.05
			s4.5-12.01,10.69-12.01C186.25,32.13,188.34,33.86,189.66,35.72z M177.7,44.13c0,3.96,2.59,6.5,5.82,6.5
			c2.87,0,5.82-2.23,5.87-6.32v-0.27c0-4.14-2.96-6.41-5.87-6.41C180.2,37.63,177.7,40.18,177.7,44.13z"/>
	</g>
	<path class="st0" d="M52.36,65.46l-9.34-9.36c6.69-4.39,11.08-12.13,11.08-20.17c0-12.5-10.17-23.43-22.66-23.43
		c-12.5,0-22.66,10.93-22.66,23.43c0,6.04,2.54,11.94,6.68,16.44L31.5,36.33l7.07,7.14c0,0,1.71-2.14,1.71-4.78
		c0-2.25-0.93-4.32-2.72-6.11c-1.23-1.28-6.09-6.11-6.09-6.11L17.03,40.99c-0.71-5.06,0.28-8.52,4.1-12.57
		c0.64-0.68,6.41-6.5,8.51-8.4l1.84-1.76l1.92,1.78c2.06,1.94,8.36,8.27,8.42,8.33c2.88,2.88,4.43,6.58,4.36,10.42
		c-0.07,3.7-1.63,7.27-4.4,10.04c-0.96,0.96-2.05,1.78-3.44,2.63l-6.89-6.89L15.64,60.38C7.82,54.56,2.88,45.7,2.88,35.93
		c0-15.75,12.81-29.32,28.56-29.32C47.19,6.61,60,20.19,60,35.93c0,7.43-3.08,14.98-8.33,20.57l8.91,8.95H52.36z"/>
</g>
</svg>
