<?xml version="1.0" encoding="utf-8"?>
<!-- Generator: Adobe Illustrator 24.1.2, SVG Export Plug-In . SVG Version: 6.00 Build 0)  -->
<svg version="1.1" id="Layer_1" xmlns="http://www.w3.org/2000/svg" xmlns:xlink="http://www.w3.org/1999/xlink" x="0px" y="0px"
	 viewBox="0 0 366.88 194.98" style="enable-background:new 0 0 366.88 194.98;" xml:space="preserve">
<style type="text/css">
	.st0{fill:dodgerblue;}
	.st1{fill:none;stroke:#FFFFFF;stroke-miterlimit:10;}
</style>
<g>
	<path class="st0" d="M103.54,181.94c-3.46-1.02-5.12-2.95-5.12-5.89c0-0.38,0.13-1.02,0.26-1.79c0.13-0.77,0.38-1.79,0.77-3.07
		c1.02-3.2,2.95-4.74,5.89-4.74c0.9,0,1.92,0.26,3.07,0.64c1.92,0.77,3.97,1.41,6.15,2.05s4.48,0.9,6.79,0.9
		c2.95,0,5.38-0.64,7.17-1.92c1.79-1.28,2.69-3.33,2.69-6.15c0-2.43-0.51-4.23-1.54-5.38c-1.02-1.15-2.43-2.18-4.35-3.07l-8.33-4.48
		c-4.74-2.43-8.45-5.51-11.27-9.22c-2.82-3.71-4.23-8.45-4.23-14.22c0-4.61,0.77-8.58,2.18-11.78c1.41-3.2,3.33-5.89,5.76-7.94
		c2.43-2.05,5.25-3.59,8.58-4.61c3.33-1.02,6.79-1.54,10.5-1.54c2.95,0,5.89,0.26,8.71,0.77c2.82,0.51,5.51,1.15,7.94,1.92
		c3.33,1.15,4.99,2.95,4.99,5.38c0,0.64,0,1.28-0.13,2.05c-0.13,0.77-0.38,1.79-0.9,3.2c-1.15,3.2-3.07,4.74-5.76,4.74
		c-1.15,0-2.18-0.13-3.2-0.51c-1.67-0.64-3.46-1.15-5.38-1.54c-1.92-0.38-3.71-0.64-5.38-0.64c-2.69,0-4.74,0.51-6.15,1.66
		c-1.41,1.15-2.18,3.07-2.18,5.89c0,2.18,0.64,3.97,1.79,5.51c1.15,1.54,2.95,2.82,5.25,3.97l8.07,4.36
		c2.05,1.15,3.97,2.43,5.76,3.84c1.79,1.41,3.46,2.95,4.87,4.74c1.41,1.79,2.56,3.71,3.46,5.89c0.9,2.18,1.28,4.61,1.28,7.3
		c0,4.61-0.64,8.58-2.05,12.04c-1.41,3.46-3.46,6.28-6.02,8.45c-2.56,2.18-5.64,3.84-9.35,4.87c-3.71,1.02-7.81,1.54-12.3,1.54
		c-3.46,0-6.79-0.38-9.99-1.15c-3.2-0.77-6.02-1.67-8.45-2.56L103.54,181.94z"/>
	<path class="st0" d="M176.04,175.92c0-0.64,0-1.67,0.13-3.07l1.28-18.06c0.13-0.64,0.13-1.15,0.13-1.54v-0.77
		c0-0.64-0.13-1.28-0.51-2.05l-17.29-41.24c-0.26-0.64-0.51-1.28-0.64-1.92c-0.13-0.64-0.26-1.15-0.26-1.67
		c0-1.54,0.51-2.82,1.54-3.72c1.02-0.9,2.56-1.41,4.61-1.41h6.15c2.18,0,3.71,0.51,4.61,1.67c0.9,1.15,1.66,2.69,2.31,4.61
		l9.61,24.72c0.38,0.9,0.64,1.41,0.77,1.41c0.26,0,0.64-0.51,1.02-1.41l13.19-24.59c0.9-1.92,1.92-3.46,2.95-4.61
		s2.69-1.79,4.87-1.79h6.02c1.66,0,2.95,0.38,3.84,1.28c0.9,0.9,1.41,2.05,1.41,3.46c0,0.64,0,1.28-0.13,1.92
		c-0.13,0.64-0.38,1.28-0.77,1.92l-23.82,42.27c-0.13,0.38-0.26,0.77-0.38,1.15c-0.13,0.38-0.26,0.9-0.38,1.54l-1.67,22.29
		c-0.26,4.99-3.2,7.56-8.71,7.56h-2.31c-5,0-7.56-2.18-7.56-6.66V175.92z"/>
	<path class="st0" d="M227.4,177.97c0-0.13,0-0.77,0-1.79s0.13-2.18,0.26-3.46l4.48-64.68c0.13-2.18,0.9-3.97,2.18-5.25
		c1.28-1.28,3.07-1.92,5.25-1.92h1.92c2.18,0,4.23,0.38,6.02,1.28c1.79,0.9,3.2,2.31,4.1,4.23l21.01,42.91
		c0.26,0.51,0.51,0.77,0.64,0.77c0.13,0,0.26-0.26,0.26-0.9l2.82-41.5c0.38-4.61,3.2-6.92,8.45-6.92h1.92
		c4.74,0,7.17,2.05,7.17,6.15c0,0.38,0,0.9,0,1.66c0,0.77,0,1.67-0.13,2.56l-4.61,65.96c-0.38,4.61-2.82,6.92-7.3,6.92h-1.92
		c-2.18,0-4.1-0.51-5.89-1.54c-1.79-1.02-3.2-2.43-4.1-4.23l-21.26-43.68c-0.26-0.38-0.38-0.64-0.51-0.64
		c-0.26,0-0.38,0.38-0.38,1.03l-2.82,42.01c-0.38,4.61-3.2,6.92-8.45,6.92h-1.92c-4.74,0-7.17-2.05-7.17-6.15V177.97z"/>
	<path class="st0" d="M304.9,148.26c0-9.61,1.02-17.55,3.2-23.82c2.18-6.28,4.99-11.27,8.45-14.99c3.46-3.72,7.43-6.28,11.91-7.68
		c4.48-1.41,8.97-2.18,13.58-2.18c5.25,0,9.73,0.77,13.45,2.43c1.41,0.64,2.56,1.41,3.33,2.31c0.77,0.9,1.15,1.92,1.15,3.07
		c0,0.51-0.13,1.15-0.26,1.92c-0.13,0.77-0.38,1.41-0.64,1.92l-0.9,1.92c-1.28,2.95-3.2,4.36-5.76,4.36c-0.9,0-1.79-0.13-2.82-0.38
		c-1.41-0.51-2.82-0.9-4.23-1.28c-1.41-0.38-2.82-0.51-4.36-0.51c-2.82,0-5.25,0.64-7.43,1.79c-2.18,1.15-3.97,3.07-5.38,5.77
		c-1.41,2.69-2.43,6.15-3.2,10.37c-0.77,4.23-1.15,9.35-1.15,15.37c0,3.97,0.26,7.3,0.77,9.99c0.51,2.69,1.41,4.87,2.56,6.53
		c1.15,1.67,2.56,2.82,4.23,3.46c1.67,0.64,3.71,0.9,6.02,0.9c3.71,0,7.04-0.77,9.99-2.18c1.28-0.64,2.56-0.9,3.71-0.9
		c1.92,0,3.59,1.28,5,3.71l0.64,1.28c0.64,1.67,1.02,2.95,1.02,3.84c0,1.28-0.38,2.43-1.15,3.46c-0.77,1.03-1.79,1.79-2.95,2.43
		c-2.43,1.28-4.99,2.31-7.68,2.95c-2.69,0.64-6.02,1.02-9.86,1.02c-4.48,0-8.71-0.51-12.55-1.67s-7.17-3.07-9.99-5.89
		c-2.82-2.82-5-6.53-6.53-11.27s-2.31-10.76-2.31-18.06H304.9z"/>
</g>
<g>
	<path class="st0" d="M20.83,81.33c0-1.02,0.13-2.43,0.26-4.1l3.46-49.7c0.13-0.77,0.26-1.54,0.26-2.31s0-1.28,0-1.41
		c0-0.77-0.38-1.15-1.28-1.15H11.99c-3.97,0-6.02-1.92-6.02-5.89c0-2.95,0.38-5.25,1.28-7.04c0.9-1.79,2.82-2.69,5.77-2.69h44.96
		c4.1,0,6.15,2.05,6.15,6.02c0,2.69-0.38,4.99-1.28,6.79c-0.9,1.79-2.82,2.69-5.76,2.69H45.03c-0.9,0-1.41,0.51-1.54,1.41
		l-3.97,58.41c-0.38,4.99-3.33,7.56-8.84,7.56h-2.31c-2.43,0-4.36-0.51-5.63-1.54c-1.28-1.02-1.92-2.82-1.92-5.25
		C20.83,83,20.83,82.36,20.83,81.33z"/>
	<path class="st0" d="M69.63,83.77c0-0.38,0-1.02,0-1.79s0.13-1.67,0.26-2.56l4.48-65.45c0.13-1.92,0.9-3.59,2.18-4.87
		c1.28-1.28,2.95-1.92,4.87-1.92h22.03c8.58,0,14.86,2.05,18.83,6.15c3.97,4.1,5.89,9.99,5.89,17.8c0,12.42-4.1,21.01-12.3,25.74
		c-0.51,0.38-0.77,0.77-0.77,1.15c0,0.13,0,0.26,0.13,0.38c0.13,0.13,0.26,0.26,0.38,0.38l11.66,23.82c0.64,1.15,0.9,2.05,0.9,2.69
		c0,1.41-0.51,2.56-1.41,3.46c-0.9,0.9-2.18,1.28-3.84,1.28h-7.04c-2.18,0-3.84-0.51-5-1.54s-2.18-2.56-3.07-4.48l-9.86-22.28
		c-0.38-0.9-1.03-1.28-1.92-1.28c-0.13,0-0.38,0-0.77,0s-0.77,0-1.15,0h-2.95c-0.9,0-1.41,0.38-1.54,1.28l-1.28,20.62
		c-0.13,2.69-1.02,4.61-2.56,5.76c-1.54,1.15-3.59,1.79-6.28,1.79h-2.18c-4.99,0-7.56-2.18-7.56-6.66L69.63,83.77z M96.78,45.73
		c1.92,0,3.72-0.13,5.25-0.51c1.54-0.38,2.82-1.03,3.84-1.92c1.03-0.9,1.79-2.18,2.31-3.84c0.51-1.67,0.77-3.84,0.77-6.53
		c0-3.97-0.9-6.66-2.82-7.94c-1.92-1.28-4.61-1.92-8.07-1.92h-4.48c-0.9,0-1.41,0.51-1.41,1.41l-1.15,16.52
		c-0.13,0.9-0.13,1.66-0.13,2.31c0,0.64,0,1.02,0,1.15c0,0.77,0.38,1.15,1.28,1.15h4.36L96.78,45.73z"/>
	<path class="st0" d="M134.32,85.43c0-0.64,0.13-1.28,0.26-1.92l0.51-1.79l24.72-68.52c0.64-1.92,1.79-3.59,3.46-4.87
		c1.67-1.28,3.71-1.92,6.15-1.92h7.68c2.43,0,4.36,0.64,5.89,1.92c1.54,1.28,2.56,2.82,2.95,4.74l14.98,68.4
		c0.26,1.02,0.38,1.92,0.38,2.82c0,1.54-0.51,2.82-1.54,3.97c-1.02,1.15-2.43,1.66-4.36,1.66h-6.4c-2.18,0-3.72-0.64-4.74-1.79
		c-1.02-1.15-1.79-2.82-2.18-4.87l-1.92-9.48c-0.13-0.9-0.64-1.41-1.54-1.41h-21.01c-1.02,0-1.67,0.38-1.92,1.28l-3.33,9.86
		c-0.64,1.92-1.54,3.46-2.69,4.61s-2.69,1.67-4.61,1.67h-5.89c-1.66,0-2.82-0.38-3.58-1.15s-1.15-1.92-1.15-3.33L134.32,85.43z
		 M162.5,57.51h13.45c0.64,0,1.03-0.38,1.03-1.02v-0.26c0-0.13,0-0.51-0.13-1.03l-4.99-26.38c-0.13-0.77-0.26-1.15-0.51-1.15
		c-0.13,0-0.38,0.38-0.64,1.15l-8.84,26.26l-0.38,1.28v0.38C161.47,57.25,161.85,57.51,162.5,57.51z"/>
	<path class="st0" d="M213.35,81.97c0-0.64,0.13-1.67,0.26-3.07l4.48-64.81c0.26-5,3.2-7.56,8.71-7.56h2.18
		c5.12,0,7.68,2.18,7.68,6.66c0,0.38,0,0.9,0,1.67s0,1.66-0.13,2.69l-4.36,64.81c-0.38,4.99-3.33,7.56-8.84,7.56h-2.18
		c-5.12,0-7.69-2.18-7.69-6.66L213.35,81.97z"/>
	<path class="st0" d="M249.98,82.36c0-0.77,0.13-1.92,0.26-3.33l4.61-64.81c0.26-4.99,3.2-7.56,8.71-7.56h2.18
		c5.12,0,7.68,2.18,7.68,6.66v1.15c0,0.51-0.13,1.54-0.26,2.95l-3.59,51.49c-0.13,1.41-0.26,2.31-0.26,2.69v0.9
		c0,0.64,0.51,1.02,1.41,1.02h21.52c4.1,0,6.15,2.05,6.15,6.28c0,2.95-0.51,5.25-1.41,7.04c-0.9,1.79-2.82,2.69-5.77,2.69h-34.97
		c-1.92,0-3.46-0.51-4.48-1.54c-1.02-1.02-1.54-2.43-1.54-4.23L249.98,82.36z"/>
</g>
<g>
	
		<rect x="29.99" y="144.54" transform="matrix(0.1406 -0.9901 0.9901 0.1406 -82.4589 195.8499)" class="st0" width="83.18" height="1.76"/>
</g>
<rect x="-821.55" y="133.97" style="fill:none;" width="226.72" height="85.89"/>
<text transform="matrix(1 0 0 1 -783.6678 185.3851)" class="st0" style="font-family:'BuloRounded-BoldItalic'; font-size:72.9286px;">SYNC</text>
<g>
	<rect x="-855.26" y="80.48" style="fill:none;" width="205.95" height="54.7"/>
	
		<text transform="matrix(1 0 0 1 -837.2482 131.8981)" class="st0" style="font-family:'BuloRounded-BoldItalic'; font-size:72.9286px;">TRAIL</text>
</g>
<line class="st1" x1="-794.43" y1="140.2" x2="-801.12" y2="187.09"/>
</svg>
